<svg width="152" height="30" viewBox="0 0 152 30" fill="none" xmlns="http://www.w3.org/2000/svg">
<path d="M17.6319 5.63738L8.81593 11.2748L17.6319 16.9121L8.81593 22.5495L0 16.8817L8.81593 11.2443L0 5.63738L8.81593 0L17.6319 5.63738ZM8.77033 24.3626L17.5863 18.7252L26.4022 24.3626L17.5863 30L8.77033 24.3626ZM17.6319 16.8817L26.4478 11.2443L17.6319 5.63738L26.4022 0L35.2181 5.63738L26.4022 11.2748L35.2181 16.9121L26.4022 22.5495L17.6319 16.8817Z" fill="#706F6B"/>
<path d="M42.1367 5.63682H49.2655C53.8102 5.63682 57.5646 8.27268 57.5646 14.291V15.5556C57.5646 21.6195 54.0534 24.3468 49.4023 24.3468H42.1367V5.63682ZM46.1191 9.03448V20.9339H49.1743C51.7582 20.9339 53.491 19.2427 53.491 15.4794V14.489C53.491 10.7257 51.667 9.03448 49.0375 9.03448H46.1191ZM59.6774 9.21732H62.8693L63.3861 12.7369C63.9941 10.3448 65.5445 9.06496 68.3565 9.06496H69.3445V13.1025H67.7029C64.4653 13.1025 63.6749 14.23 63.6749 17.4296V24.3925H59.7382V9.21732H59.6774ZM70.1349 17.1096V16.683C70.1349 11.6094 73.3725 8.83641 77.7804 8.83641C82.2796 8.83641 85.426 11.6094 85.426 16.683V17.1096C85.426 22.0919 82.3708 24.7734 77.7804 24.7734C72.9013 24.7277 70.1349 22.1071 70.1349 17.1096ZM81.398 17.0639V16.683C81.398 13.8643 79.9844 12.1731 77.7348 12.1731C75.5308 12.1731 74.0717 13.7272 74.0717 16.683V17.0639C74.0717 19.7912 75.4852 21.3453 77.7348 21.3453C79.9844 21.2996 81.398 19.7912 81.398 17.0639ZM87.4931 9.21732H90.7763L91.1563 12.0817C91.9467 10.162 93.6339 8.83641 96.1267 8.83641C99.9722 8.83641 102.511 11.6094 102.511 16.744V17.1706C102.511 22.1528 99.6986 24.7887 96.1267 24.7887C93.7403 24.7887 92.0987 23.7069 91.2931 21.97V29.6338H87.4475L87.4931 9.21732ZM98.513 17.0639V16.7287C98.513 13.712 96.9627 12.2188 94.8955 12.2188C92.6915 12.2188 91.2323 13.9101 91.2323 16.7287V17.0182C91.2323 19.6998 92.6459 21.391 94.8499 21.391C97.1147 21.3453 98.513 19.8979 98.513 17.0639ZM108.332 21.5891L107.998 24.3621H104.623V4.14368H108.469V11.8989C109.32 9.91818 111.007 8.83641 113.394 8.83641C117.011 8.88212 119.686 11.3809 119.686 16.4088V16.8811C119.686 21.909 117.148 24.7887 113.303 24.7887C110.764 24.7277 109.123 23.5545 108.332 21.5891ZM115.643 16.8811V16.5002C115.643 13.7272 114.139 12.1731 112.026 12.1731C109.867 12.1731 108.363 13.9101 108.363 16.5459V16.8811C108.363 19.6998 109.822 21.3453 111.98 21.3453C114.291 21.3453 115.643 19.8979 115.643 16.8811ZM121.374 17.1096V16.683C121.374 11.6094 124.611 8.83641 129.019 8.83641C133.518 8.83641 136.665 11.6094 136.665 16.683V17.1096C136.665 22.0919 133.564 24.7734 129.019 24.7734C124.14 24.7277 121.374 22.1071 121.374 17.1096ZM132.667 17.0639V16.683C132.667 13.8643 131.254 12.1731 129.004 12.1731C126.8 12.1731 125.341 13.7272 125.341 16.683V17.0639C125.341 19.7912 126.754 21.3453 129.004 21.3453C131.269 21.2996 132.667 19.7912 132.667 17.0639ZM141.817 16.5002L136.513 9.21732H141.058L144.113 13.7729L147.213 9.21732H151.713L146.332 16.4545L152.001 24.3621H147.548L144.082 19.3341L140.708 24.3621H136.057L141.817 16.5002Z" fill="#706F6B"/>
</svg>
