<svg width="199" height="30" viewBox="0 0 199 30" fill="none" xmlns="http://www.w3.org/2000/svg">
<path d="M29.8363 15.1616C29.8363 23.3572 23.1572 30.0014 14.9179 30.0014C6.67859 30.0014 0 23.3592 0 15.1616C0 6.96395 6.67909 0.322266 14.9179 0.322266C23.1567 0.322266 29.8363 6.96595 29.8363 15.1616Z" fill="#706F6B"/>
<path d="M46.2036 15.1614C46.2036 22.8766 42.8638 29.1304 38.7444 29.1304C34.625 29.1304 31.2852 22.8746 31.2852 15.1614C31.2852 7.44821 34.625 1.19238 38.7444 1.19238C42.8638 1.19238 46.2036 7.44821 46.2036 15.1614Z" fill="#706F6B"/>
<path d="M52.8955 15.1582C52.8955 22.0707 51.7207 27.6739 50.272 27.6739C48.8232 27.6739 47.6484 22.0687 47.6484 15.1582C47.6484 8.2478 48.8232 2.64258 50.2725 2.64258C51.7217 2.64258 52.8955 8.2463 52.8955 15.1582Z" fill="#706F6B"/>
<path d="M94.0659 1.6075L94.1075 1.59849V1.28069H85.6235L77.7459 19.5727L69.8682 1.28069H60.7257V1.59849L60.7667 1.6075C62.3153 1.95282 63.1015 2.4678 63.1015 4.32503V26.0678C63.1015 27.925 62.3123 28.44 60.7637 28.7853L60.7227 28.7943V29.1131H66.9256V28.7953L66.8845 28.7863C65.336 28.441 64.5498 27.926 64.5498 26.0688V5.5862L74.6695 29.1131H75.2434L85.6579 4.93009V26.6058C85.5252 28.0726 84.7461 28.5256 83.3439 28.8383L83.3024 28.8479V29.1631H94.1075V28.8479L94.0659 28.8383C92.6622 28.5256 91.8644 28.0726 91.7317 26.6058L91.7246 4.32503H91.7317C91.7317 2.4678 92.5179 1.95282 94.0659 1.6075ZM99.0014 16.0109C99.1782 12.1043 100.598 9.28464 102.981 9.2361C103.716 9.24811 104.333 9.48633 104.812 9.94476C105.83 10.9212 106.309 12.9616 106.235 16.0109H99.0014ZM98.8945 17.1119H111.559V17.0594C111.523 14.0721 110.647 11.7484 108.958 10.153C107.498 8.77417 105.337 8.01546 103.066 8.01546H103.015C101.837 8.01546 100.392 8.29773 99.3636 8.8092C98.1929 9.3447 97.1606 10.1454 96.3014 11.1964C94.9185 12.8895 94.0806 15.1776 93.877 17.749C93.8704 17.8261 93.8648 17.9032 93.8593 17.9802C93.8537 18.0573 93.8501 18.1264 93.8466 18.1999C93.8395 18.3376 93.8339 18.4757 93.8309 18.6143C93.8258 18.8365 93.8243 19.0602 93.8284 19.2855C93.9656 25.1094 97.1499 29.7637 102.806 29.7637C107.77 29.7637 110.661 26.1784 111.382 21.3659L111.018 21.2393C109.751 23.8257 107.477 25.3931 104.888 25.202C101.354 24.9407 98.6473 21.4009 98.893 17.1129M125.877 25.0043C125.462 25.9777 124.595 26.5132 123.434 26.5132C122.272 26.5132 121.21 25.7254 120.456 24.2941C119.646 22.7577 119.219 20.5857 119.219 18.0128C119.219 12.6578 120.905 9.19406 123.514 9.19406C124.607 9.19406 125.467 9.72956 125.877 10.6639V25.0043ZM134.278 28.8218C132.73 28.46 131.944 27.921 131.944 25.9692V0L122.535 2.73855V3.07386L122.593 3.06936C123.891 2.96576 124.771 3.14293 125.282 3.60936C125.682 3.9747 125.877 4.53522 125.877 5.32396V8.88427C124.95 8.29923 123.847 8.01446 122.508 8.01446C119.792 8.01446 117.311 9.14401 115.521 11.1954C113.655 13.3334 112.669 16.2551 112.669 19.6438C112.669 25.6959 115.684 29.7637 120.172 29.7637C122.798 29.7637 124.91 28.3424 125.877 25.9452V29.1631H134.319V28.8298L134.278 28.8218ZM142.347 3.53179C142.347 1.64203 140.905 0.216702 138.992 0.216702C137.088 0.216702 135.598 1.67306 135.598 3.53179C135.598 5.39052 137.089 6.84687 138.992 6.84687C140.905 6.84687 142.347 5.42155 142.347 3.53179ZM144.568 28.8218C143.02 28.46 142.233 27.921 142.233 25.9692H142.227V8.07602L133.784 10.4707V10.7961L133.835 10.8006C135.662 10.9612 136.162 11.5828 136.162 13.6917V29.1631H144.611V28.8298L144.568 28.8218ZM166.201 28.8218C164.653 28.46 163.866 27.921 163.866 25.9692V8.07602L155.828 10.3917V10.718L155.876 10.723C157.369 10.8781 157.801 11.5352 157.801 13.6537V24.9642C157.303 25.9376 156.369 26.5157 155.237 26.5547C153.402 26.5547 152.391 25.3301 152.391 23.1065V8.07652L143.949 10.4712V10.7961L143.999 10.8006C145.826 10.9607 146.326 11.5823 146.326 13.6917V23.2642C146.322 23.9324 146.381 24.5996 146.502 25.257L146.654 25.9101C147.369 28.4405 149.242 29.7637 152.176 29.7637C154.661 29.7637 156.839 28.2438 157.799 25.8656V29.1687H166.241V28.8353L166.201 28.8218ZM198.998 29.1631V28.8293L198.957 28.8198C197.277 28.437 196.622 27.7153 196.622 26.2459V14.0746C196.622 10.2796 194.465 8.01446 190.851 8.01446C188.217 8.01446 185.995 9.51836 185.14 11.861C184.461 9.37873 182.506 8.01446 179.616 8.01446C177.077 8.01446 175.087 9.33819 174.233 11.5743V8.07752L165.791 10.3742V10.7015L165.841 10.706C167.646 10.8641 168.168 11.5037 168.168 13.5586V29.1631H176.045V28.8298L176.004 28.8198C174.663 28.5085 174.231 27.941 174.231 26.4847V12.5337C174.585 11.7154 175.3 10.746 176.713 10.746C178.468 10.746 179.357 11.9471 179.357 14.3133V29.1631H187.236V28.8298L187.195 28.8198C185.854 28.5085 185.422 27.941 185.422 26.4847V14.0731C185.425 13.609 185.388 13.1455 185.31 12.6878C185.686 11.7985 186.442 10.746 187.913 10.746C189.692 10.746 190.557 11.9126 190.557 14.3133V29.1631H198.998Z" fill="#706F6B"/>
</svg>
