<svg width="143" height="30" viewBox="0 0 143 30" fill="none" xmlns="http://www.w3.org/2000/svg">
<path d="M109.278 11.1266H115.09L116.786 16.6516C117.335 18.4766 118.283 21.9266 118.283 21.9266C118.283 21.9516 118.308 21.9516 118.332 21.9516L118.357 21.9266C118.357 21.9266 119.33 18.4266 119.879 16.6516L121.65 11.1266H125.965L127.711 16.6516C128.285 18.5516 129.208 21.9266 129.208 21.9266C129.208 21.9516 129.233 21.9516 129.258 21.9516L129.283 21.9266C129.283 21.9266 130.23 18.5016 130.779 16.6516L132.475 11.1266H137.888L132.026 29.3766H126.713L125.267 24.8016C124.718 23.0016 123.72 19.5016 123.72 19.5016C123.72 19.4766 123.695 19.4766 123.67 19.4766L123.645 19.5016C123.645 19.5016 122.673 22.9266 122.074 24.7766L120.602 29.4016H115.19L109.278 11.1266ZM70.0921 1.47656H75.9788V29.4016H70.0921V1.47656ZM80.3438 1.47656H86.2305V29.4016H80.3438V1.47656ZM103.317 20.3266C103.317 17.6016 101.371 15.7516 99.1012 15.7516C96.7565 15.7516 94.811 17.6016 94.811 20.3266C94.811 23.0516 96.7565 24.9016 99.1012 24.9016C101.371 24.9016 103.317 23.0516 103.317 20.3266ZM89.1488 20.3266C89.1488 14.7766 93.6137 10.6766 99.0763 10.6766C104.489 10.6766 108.954 14.7766 108.954 20.3266C108.954 25.9016 104.489 30.0016 99.0763 30.0016C93.6386 30.0016 89.1488 25.9016 89.1488 20.3266ZM36.0196 4.07656V9.45157H46.4209C46.4708 9.45157 46.4958 9.50157 46.4708 9.52657L36.0196 27.3266C35.7701 27.8016 35.6953 27.8766 35.6953 28.3516V29.4016H55.9742V24.0266H44.7248C44.6998 24.0266 44.6749 24.0016 44.6749 23.9766C44.6749 23.9516 44.6749 23.9516 44.6749 23.9516L55.2509 5.92657C55.3257 5.75157 55.4255 5.62657 55.4255 5.20157V4.07656H36.0196ZM59.7407 11.1266H65.6273V29.3766H59.7407V11.1266ZM62.684 1.97656C64.5298 1.97656 66.0264 3.45156 66.0264 5.30157C66.0264 7.15157 64.5048 8.62657 62.684 8.62657C60.8382 8.62657 59.3416 7.15157 59.3416 5.30157C59.3416 3.45156 60.8631 1.97656 62.684 1.97656Z" fill="#706F6B"/>
<path d="M18.1284 7.95001C18.2531 7.92501 18.3279 7.97501 18.4028 8.05001C18.8517 8.57501 20.3483 10.375 20.7474 10.875C20.7973 10.95 20.7973 11.05 20.7225 11.1L20.6975 11.125C17.7043 13.5 14.9606 16.2 12.5161 19.15C12.4912 19.2 12.5161 19.2 12.5411 19.175C15.7837 17.775 23.3665 15.55 26.7837 14.925V10.6L13.4141 0L0.0195312 10.6V15.35C4.16012 12.875 13.7633 9.05001 18.1284 7.95001Z" fill="#706F6B"/>
<path d="M7.23356 26.2013C7.13379 26.2513 7.00907 26.2263 6.95918 26.1513L4.46485 23.1763C4.39002 23.1013 4.39002 23.0513 4.4898 22.9263C6.41043 20.1013 10.3515 15.6763 12.8707 13.8013C12.9206 13.7513 12.9206 13.7263 12.8458 13.7513C10.2018 14.6013 2.76871 17.8013 0 19.3763V29.5013H26.8141V19.7513C23.1474 20.3763 12.1973 23.6263 7.23356 26.2013Z" fill="#706F6B"/>
<path d="M141.833 8.52671C141.833 8.00171 141.458 7.62671 140.96 7.62671H140.012V10.1767H140.436V9.42671H140.86L141.334 10.2017H141.808L141.309 9.37671C141.608 9.22671 141.833 8.92671 141.833 8.52671ZM140.935 9.05171H140.436V8.00171H140.935C141.209 8.00171 141.409 8.22671 141.409 8.52671C141.409 8.82671 141.209 9.05171 140.935 9.05171Z" fill="#706F6B"/>
<path d="M140.8 6.75C139.578 6.75 138.605 7.725 138.605 8.95C138.605 10.175 139.578 11.15 140.8 11.15C142.023 11.15 142.995 10.175 142.995 8.95C142.995 7.725 142.023 6.75 140.8 6.75ZM140.8 10.725C139.828 10.725 139.03 9.925 139.03 8.95C139.03 7.975 139.828 7.175 140.8 7.175C141.773 7.175 142.571 7.975 142.571 8.95C142.596 9.925 141.798 10.725 140.8 10.725Z" fill="#706F6B"/>
</svg>
