<svg width="50" height="50" viewBox="0 0 50 50" fill="none" xmlns="http://www.w3.org/2000/svg">
<path d="M25.2766 31.8884L27.3923 30.7802C27.4342 30.7582 31.6305 28.5557 36.1078 25.8113C42.3552 21.9819 46.016 19.0688 47.2996 16.9054L47.2997 16.9052C50.4627 11.5726 48.6567 4.6847 43.2736 1.55087C40.6657 0.032797 37.617 -0.388364 34.6894 0.365061C31.7619 1.11839 29.3057 2.95594 27.7735 5.53902C26.4901 7.7025 25.7024 12.288 25.3653 19.5578C25.1237 24.768 25.2233 29.4712 25.2244 29.5182L25.2766 31.8884Z" fill="url(#paint0_linear_6024_2917)"/>
<path d="M47.8235 28.7826C46.4127 27.3735 44.5323 26.593 42.5294 26.585C41.9215 26.5837 40.0845 26.5749 34.0394 29.702C31.1676 31.1876 28.7486 32.6504 28.6472 32.7119L26.6055 33.949L28.6367 35.2027C28.7377 35.2652 31.1443 36.7477 34.0037 38.2567C40.0225 41.4332 41.8625 41.4408 42.4671 41.4434H42.4672H42.4985C46.619 41.4434 49.9806 38.1309 49.9985 34.0449C50.0068 32.0605 49.2344 30.1916 47.8235 28.7826Z" fill="url(#paint1_linear_6024_2917)"/>
<path d="M20.5231 33.3349L22.8209 32.6722L21.1934 30.9341C21.1125 30.8476 19.1834 28.7911 16.8244 26.5913C11.8592 21.961 10.0857 21.475 9.50284 21.3153C5.51788 20.2234 1.37785 22.5467 0.274728 26.4949C-0.259353 28.4077 -0.00945133 30.4119 0.97834 32.1385C1.96613 33.8651 3.57365 35.1074 5.50441 35.6361C5.76505 35.7075 6.26378 35.8442 7.33165 35.8442C8.65128 35.8442 10.84 35.6354 14.5224 34.8368C17.687 34.1503 20.4087 33.3679 20.5231 33.3349Z" fill="url(#paint2_linear_6024_2917)"/>
<path d="M16.9756 36.3224C12.4455 38.037 11.1721 39.0811 10.6084 39.7172C8.35858 42.2558 8.61297 46.1344 11.1759 48.3634C12.3141 49.3531 13.7465 49.886 15.2472 49.8859C15.3835 49.8859 15.5205 49.8815 15.6577 49.8726C17.3063 49.7664 18.8144 49.0304 19.904 47.8007C20.4679 47.1645 21.3482 45.7785 22.4775 41.1066C23.0697 38.6567 23.4422 36.4831 23.4579 36.3918L23.8562 34.0542L21.568 34.7485C21.4787 34.7756 19.3511 35.4232 16.9756 36.3224Z" fill="url(#paint3_linear_6024_2917)"/>
<path d="M16.062 22.456C18.0653 24.1228 19.9127 25.4621 19.9905 25.5183L21.9231 26.9167L22.3193 24.5787C22.3353 24.4847 22.7122 22.2478 22.9697 19.669C23.4599 14.7581 23.078 13.123 22.748 12.3203L22.7479 12.3201C21.4326 9.12237 17.7363 7.58 14.5073 8.88213C12.9432 9.51328 11.721 10.7099 11.0655 12.2517C10.41 13.7936 10.3999 15.496 11.037 17.0451C11.3672 17.8478 12.2472 19.2821 16.062 22.456Z" fill="url(#paint4_linear_6024_2917)"/>
<path d="M27.4548 37.13L25.5182 35.7368L25.1285 38.076C24.8632 39.6688 24.0606 45.0184 24.8757 46.9851C25.6536 48.8624 27.4891 49.9999 29.4215 49.9999C30.041 49.9999 30.6707 49.8829 31.2784 49.6359C32.4908 49.1427 33.4368 48.2114 33.9421 47.0134C34.4475 45.8153 34.4516 44.4941 33.9537 43.2933C33.1388 41.3267 28.7734 38.0787 27.4548 37.13Z" fill="url(#paint5_linear_6024_2917)"/>
<defs>
<linearGradient id="paint0_linear_6024_2917" x1="37.0305" y1="0" x2="37.0305" y2="31.8884" gradientUnits="userSpaceOnUse">
<stop stop-color="#43BAFF"/>
<stop offset="1" stop-color="#E91CFF"/>
</linearGradient>
<linearGradient id="paint1_linear_6024_2917" x1="38.302" y1="26.585" x2="38.302" y2="41.4434" gradientUnits="userSpaceOnUse">
<stop stop-color="#43BAFF"/>
<stop offset="1" stop-color="#E91CFF"/>
</linearGradient>
<linearGradient id="paint2_linear_6024_2917" x1="11.4104" y1="21.0457" x2="11.4104" y2="35.8442" gradientUnits="userSpaceOnUse">
<stop stop-color="#43BAFF"/>
<stop offset="1" stop-color="#E91CFF"/>
</linearGradient>
<linearGradient id="paint3_linear_6024_2917" x1="16.4652" y1="34.0542" x2="16.4652" y2="49.8859" gradientUnits="userSpaceOnUse">
<stop stop-color="#43BAFF"/>
<stop offset="1" stop-color="#E91CFF"/>
</linearGradient>
<linearGradient id="paint4_linear_6024_2917" x1="16.885" y1="8.41968" x2="16.885" y2="26.9167" gradientUnits="userSpaceOnUse">
<stop stop-color="#43BAFF"/>
<stop offset="1" stop-color="#E91CFF"/>
</linearGradient>
<linearGradient id="paint5_linear_6024_2917" x1="29.4219" y1="35.7368" x2="29.4219" y2="49.9999" gradientUnits="userSpaceOnUse">
<stop stop-color="#43BAFF"/>
<stop offset="1" stop-color="#E91CFF"/>
</linearGradient>
</defs>
</svg>
