<svg width="46" height="50" viewBox="0 0 46 50" fill="none" xmlns="http://www.w3.org/2000/svg">
<path d="M29.6762 47.7142C3.34657 42.6551 6.47704 4.60724 33.2328 3.86609C33.9526 3.81982 35.0415 4.18325 35.2761 3.2143C35.3274 3.01289 35.3057 2.79961 35.2148 2.61295C35.124 2.4263 34.97 2.27857 34.7807 2.19645C31.5948 0.744056 28.1383 -0.00479162 24.6425 2.30703e-05C-8.21846 1.37192 -8.20992 48.6326 24.6427 50C26.3457 49.9989 28.0441 49.8224 29.7116 49.4732C29.9145 49.4311 30.0965 49.3186 30.2258 49.1552C30.3551 48.9918 30.4236 48.7879 30.4194 48.5788C30.4152 48.3698 30.3385 48.1688 30.2027 48.0109C30.067 47.8529 29.8807 47.748 29.6762 47.7142Z" fill="url(#paint0_linear_6024_2910)"/>
<path d="M45.9457 17.6608C42.0191 6.90899 27.8562 3.82945 19.9191 12.0359C16.9493 15.0377 15.2812 19.1063 15.2812 23.3483C15.2812 27.5904 16.9493 31.659 19.9191 34.6608C20.6909 35.4384 21.5386 36.1354 22.4492 36.7411C22.6221 36.8543 22.8286 36.9031 23.0333 36.8791C23.238 36.8551 23.428 36.7598 23.5705 36.6096C23.713 36.4594 23.7992 36.2637 23.8141 36.0563C23.8291 35.8488 23.7719 35.6427 23.6523 35.4732C21.6962 32.7183 20.8383 29.3215 21.2492 25.9577C21.6601 22.5938 23.3097 19.509 25.8703 17.3161C28.4308 15.1232 31.715 13.9826 35.0704 14.1209C38.4258 14.2592 41.6069 15.6663 43.9818 18.0627C44.3843 18.5258 44.9187 19.1599 45.5742 18.7411C45.7503 18.632 45.8835 18.4648 45.9512 18.2679C46.0189 18.071 46.017 17.8564 45.9457 17.6608Z" fill="url(#paint1_linear_6024_2910)"/>
<path d="M34.4191 17.2231C31.8662 17.2255 29.4185 18.2494 27.6125 20.0704C25.8066 21.8914 24.7898 24.3609 24.7852 26.9374C24.8765 27.8373 24.6355 29.5714 25.8732 29.6429C26.0804 29.6382 26.2794 29.5607 26.4361 29.4238C26.5928 29.2869 26.6972 29.0991 26.7314 28.8928C28.4854 19.6198 41.7402 21.0817 41.514 30.5089C41.5093 30.6296 41.5286 30.7499 41.5708 30.8629C41.6131 30.9759 41.6773 31.0791 41.7598 31.1665C41.8424 31.254 41.9414 31.3238 42.0511 31.3718C42.1609 31.4199 42.2791 31.4452 42.3987 31.4463C42.5693 31.4481 42.7367 31.399 42.8798 31.3053C43.023 31.2117 43.1357 31.0775 43.2037 30.9196C43.7668 29.6691 44.0565 28.3109 44.053 26.9374C44.0483 24.3609 43.0315 21.8915 41.2256 20.0704C39.4196 18.2494 36.9719 17.2255 34.4191 17.2231Z" fill="url(#paint2_linear_6024_2910)"/>
<defs>
<linearGradient id="paint0_linear_6024_2910" x1="17.6516" y1="0" x2="17.6516" y2="50" gradientUnits="userSpaceOnUse">
<stop stop-color="#E91CFF"/>
<stop offset="1" stop-color="#43BAFF"/>
</linearGradient>
<linearGradient id="paint1_linear_6024_2910" x1="30.6409" y1="7.36963" x2="30.6409" y2="36.8851" gradientUnits="userSpaceOnUse">
<stop stop-color="#E91CFF"/>
<stop offset="1" stop-color="#43BAFF"/>
</linearGradient>
<linearGradient id="paint2_linear_6024_2910" x1="34.4191" y1="17.2231" x2="34.4191" y2="31.4464" gradientUnits="userSpaceOnUse">
<stop stop-color="#E91CFF"/>
<stop offset="1" stop-color="#43BAFF"/>
</linearGradient>
</defs>
</svg>
