<svg width="40" height="40" viewBox="0 0 40 40" fill="none" xmlns="http://www.w3.org/2000/svg">
<path d="M31.5845 24.7788C30.7655 23.9261 29.7778 23.4702 28.7309 23.4702C27.6925 23.4702 26.6962 23.9177 25.8435 24.7703L23.1757 27.4296C22.9562 27.3114 22.7367 27.2017 22.5256 27.0919C22.2217 26.94 21.9347 26.7965 21.6898 26.6445C19.1908 25.0574 16.9198 22.989 14.7416 20.3128C13.6863 18.979 12.9771 17.8562 12.4621 16.7165C13.1544 16.0833 13.7961 15.4248 14.4208 14.7917C14.6572 14.5553 14.8936 14.3104 15.13 14.0741C16.9029 12.3012 16.9029 10.0049 15.13 8.23207L12.8252 5.92735C12.5634 5.66564 12.2933 5.39549 12.04 5.12534C11.5335 4.60192 11.0016 4.06162 10.4528 3.55509C9.63389 2.74464 8.65456 2.31409 7.62457 2.31409C6.59458 2.31409 5.59836 2.74464 4.75411 3.55509C4.74567 3.56353 4.74567 3.56353 4.73723 3.57197L1.86677 6.46765C0.786124 7.54825 0.16982 8.86523 0.0347397 10.3933C-0.167881 12.8584 0.558176 15.1547 1.11538 16.6574C2.48307 20.3466 4.52616 23.7657 7.57392 27.4296C11.2717 31.8449 15.721 35.3315 20.8034 37.7882C22.7451 38.7084 25.337 39.7974 28.2328 39.9832C28.4101 39.9916 28.5958 40 28.7647 40C30.7149 40 32.3527 39.2993 33.636 37.9064C33.6444 37.8895 33.6613 37.8811 33.6698 37.8642C34.1088 37.3323 34.6153 36.8511 35.1472 36.3361C35.5102 35.99 35.8817 35.627 36.2447 35.2471C37.0805 34.3775 37.5196 33.3645 37.5196 32.3261C37.5196 31.2793 37.0721 30.2746 36.2194 29.4304L31.5845 24.7788ZM34.6069 33.6684C34.5984 33.6684 34.5984 33.6768 34.6069 33.6684C34.2776 34.023 33.9399 34.3438 33.5769 34.6983C33.0281 35.2218 32.4709 35.7705 31.9475 36.3868C31.0948 37.2985 30.0901 37.7291 28.7731 37.7291C28.6465 37.7291 28.5114 37.7291 28.3847 37.7207C25.8773 37.5603 23.5472 36.581 21.7996 35.7452C17.0211 33.432 12.8252 30.148 9.3384 25.986C6.4595 22.5163 4.53461 19.3082 3.25978 15.8638C2.47463 13.7617 2.18758 12.1239 2.31422 10.579C2.39865 9.59126 2.77856 8.77237 3.47929 8.07166L6.35819 5.19288C6.77188 4.80453 7.21089 4.59348 7.64146 4.59348C8.17334 4.59348 8.6039 4.91428 8.87406 5.18443C8.88251 5.19288 8.89095 5.20132 8.89939 5.20976C9.41439 5.69097 9.90405 6.18905 10.419 6.72091C10.6808 6.99106 10.9509 7.26121 11.2211 7.53981L13.5259 9.84453C14.4208 10.7394 14.4208 11.5667 13.5259 12.4616C13.2811 12.7064 13.0447 12.9513 12.7998 13.1876C12.0907 13.9137 11.4153 14.589 10.6808 15.2475C10.6639 15.2644 10.647 15.2729 10.6386 15.2897C9.91249 16.0158 10.0476 16.7249 10.1995 17.2061C10.208 17.2314 10.2164 17.2568 10.2249 17.2821C10.8243 18.7342 11.6685 20.1018 12.9518 21.7311L12.9602 21.7396C15.2904 24.6099 17.7472 26.8471 20.4572 28.5609C20.8034 28.7804 21.1579 28.9577 21.4956 29.1265C21.7996 29.2785 22.0866 29.422 22.3314 29.5739C22.3652 29.5908 22.399 29.6161 22.4328 29.633C22.7198 29.7766 22.99 29.8441 23.2686 29.8441C23.9693 29.8441 24.4083 29.4051 24.5518 29.2616L27.4392 26.3743C27.7262 26.0873 28.1821 25.7412 28.714 25.7412C29.2374 25.7412 29.668 26.0704 29.9297 26.3575C29.9382 26.3659 29.9382 26.3659 29.9466 26.3743L34.5984 31.026C35.468 31.8871 35.468 32.7735 34.6069 33.6684Z" fill="white"/>
<path d="M21.5866 9.51552C23.7985 9.88698 25.8079 10.9338 27.4119 12.5378C29.016 14.1418 30.0544 16.1511 30.4344 18.3629C30.5272 18.9201 31.0084 19.3085 31.5572 19.3085C31.6248 19.3085 31.6839 19.3 31.7514 19.2916C32.3761 19.1903 32.7898 18.5993 32.6885 17.9746C32.2326 15.2984 30.9662 12.8586 29.0329 10.9254C27.0996 8.99211 24.6597 7.72578 21.9834 7.2699C21.3586 7.16859 20.7761 7.58226 20.6664 8.19854C20.5566 8.81482 20.9618 9.41421 21.5866 9.51552Z" fill="white"/>
<path d="M39.9284 17.6447C39.177 13.2379 37.1002 9.22781 33.9089 6.03666C30.7176 2.84551 26.7074 0.768731 22.3004 0.0173753C21.6841 -0.0923732 21.1016 0.329737 20.9918 0.946017C20.8905 1.57074 21.3042 2.15325 21.9289 2.263C25.8632 2.92993 29.4512 4.79566 32.3048 7.64068C35.1584 10.4941 37.0157 14.0821 37.6827 18.0161C37.7756 18.5733 38.2568 18.9617 38.8055 18.9617C38.8731 18.9617 38.9322 18.9532 38.9997 18.9448C39.616 18.8519 40.0382 18.261 39.9284 17.6447Z" fill="white"/>
</svg>
