<svg width="40" height="40" viewBox="0 0 40 40" fill="none" xmlns="http://www.w3.org/2000/svg">
<g clip-path="url(#clip0_6024_6825)">
<path d="M17.1552 19.4248C18.0921 19.8001 19.0941 19.9861 20.1033 19.9721C21.1125 19.9581 22.109 19.7445 23.0352 19.3435C23.2788 19.2386 23.4708 19.0413 23.569 18.7949C23.6671 18.5484 23.6634 18.2731 23.5585 18.0295C23.4537 17.7858 23.2563 17.5938 23.0099 17.4957C22.7635 17.3975 22.4881 17.4013 22.2445 17.5061C21.1214 17.9897 19.8724 18.0983 18.6827 17.8157C17.493 17.533 16.4263 16.8743 15.6407 15.9373C14.8551 15.0002 14.3927 13.8348 14.322 12.6141C14.2513 11.3934 14.5762 10.1824 15.2484 9.16098C15.9205 8.13954 16.9042 7.3621 18.0533 6.94406C19.2024 6.52603 20.4556 6.4897 21.627 6.84046C22.7984 7.19122 23.8254 7.91037 24.5556 8.89115C25.2859 9.87193 25.6803 11.062 25.6805 12.2848V12.9968V13.0261C25.6798 13.0372 25.6798 13.0484 25.6805 13.0595C25.7035 13.3935 25.5965 13.7235 25.3818 13.9805C25.1671 14.2374 24.8613 14.4014 24.5285 14.4381C24.3853 14.4352 24.2441 14.4041 24.113 14.3465C23.9819 14.2889 23.8634 14.2061 23.7643 14.1027C23.6652 13.9993 23.5875 13.8773 23.5356 13.7439C23.4837 13.6104 23.4586 13.468 23.4618 13.3248V10.1048C23.4618 9.8396 23.3565 9.58524 23.1689 9.39771C22.9814 9.21017 22.7271 9.10481 22.4618 9.10481C22.2246 9.10795 21.9964 9.19647 21.8192 9.35415C21.2876 9.02152 20.6756 8.83972 20.0486 8.82822C19.4217 8.81672 18.8034 8.97595 18.26 9.28885C17.7166 9.60176 17.2685 10.0566 16.9637 10.6046C16.6589 11.1526 16.5089 11.7732 16.5298 12.3999C16.5506 13.0266 16.7415 13.6358 17.082 14.1624C17.4225 14.689 17.8998 15.113 18.4628 15.3891C19.0258 15.6652 19.6533 15.783 20.2781 15.7299C20.9029 15.6767 21.5015 15.4547 22.0098 15.0875C22.2992 15.5012 22.6838 15.8394 23.1312 16.0735C23.5785 16.3076 24.0756 16.4309 24.5805 16.4328C25.4403 16.3792 26.2452 15.9919 26.8237 15.3536C27.4022 14.7153 27.7087 13.8764 27.6778 13.0155C27.6778 13.0075 27.6778 13.0008 27.6778 12.9928V12.2848C27.6774 10.8892 27.2968 9.52012 26.5769 8.32452C25.857 7.12892 24.8251 6.152 23.5918 5.49864C22.3586 4.84529 20.9707 4.54019 19.5772 4.61611C18.1837 4.69204 16.8372 5.14611 15.6822 5.92957C14.5273 6.71303 13.6076 7.79629 13.0219 9.06302C12.4362 10.3297 12.2065 11.7321 12.3577 13.1195C12.5088 14.5069 13.0351 15.8269 13.8798 16.9377C14.7246 18.0486 15.856 18.9084 17.1525 19.4248H17.1552ZM19.9978 13.7435C19.7097 13.7419 19.4285 13.655 19.1896 13.4938C18.9508 13.3325 18.7651 13.1042 18.6559 12.8375C18.5467 12.5708 18.519 12.2778 18.5762 11.9954C18.6334 11.7129 18.7729 11.4538 18.9772 11.2506C19.1815 11.0474 19.4415 10.9093 19.7242 10.8536C20.0069 10.798 20.2998 10.8273 20.5659 10.938C20.8319 11.0486 21.0593 11.2356 21.2192 11.4753C21.3791 11.715 21.4645 11.9967 21.4645 12.2848C21.4643 12.477 21.4262 12.6672 21.3523 12.8447C21.2785 13.0221 21.1703 13.1832 21.0341 13.3187C20.8978 13.4542 20.7361 13.5615 20.5583 13.6344C20.3805 13.7073 20.19 13.7444 19.9978 13.7435Z" fill="white"/>
<path d="M39.4695 13.5479C39.3273 13.1103 39.1044 12.7033 38.8121 12.3479L33.4468 5.90255V4.01188C33.4457 3.03975 33.0591 2.10773 32.3717 1.42033C31.6843 0.732922 30.7523 0.346274 29.7801 0.345215H10.2041C9.23199 0.346274 8.29997 0.732922 7.61257 1.42033C6.92517 2.10773 6.53852 3.03975 6.53746 4.01188V5.91055L1.17612 12.3492C0.628799 13.0083 0.32886 13.8378 0.328125 14.6945V33.3212C0.330242 35.0003 0.998182 36.6099 2.18545 37.7972C3.37273 38.9845 4.9824 39.6524 6.66146 39.6545H33.3281C34.972 39.6558 36.5511 39.0141 37.7281 37.8665L37.7455 37.8545C38.3526 37.266 38.8353 36.5614 39.1649 35.7826C39.4945 35.0039 39.6643 34.1668 39.6641 33.3212V14.6945C39.6606 14.3325 39.6031 13.973 39.4935 13.6279C39.4855 13.5999 39.4775 13.5759 39.4695 13.5479ZM36.8841 35.7852L24.9521 25.4372L37.6615 15.7492V33.3212C37.6615 34.2029 37.3901 35.0632 36.8841 35.7852ZM37.2241 13.5665L33.4468 16.4452V9.02921L37.2241 13.5665ZM10.2041 2.34521H29.7801C30.2219 2.34592 30.6455 2.52174 30.9579 2.83415C31.2703 3.14656 31.4461 3.57007 31.4468 4.01188V17.9705L23.4081 24.1039L22.1868 23.0372C21.575 22.5145 20.7968 22.2274 19.9921 22.2274C19.1875 22.2274 18.4092 22.5145 17.7975 23.0372L16.5841 24.0905L8.53746 17.9572V4.01188C8.53816 3.57007 8.71399 3.14656 9.02639 2.83415C9.3388 2.52174 9.76231 2.34592 10.2041 2.34521ZM3.10813 35.7892C2.60074 35.0662 2.3284 34.2045 2.32812 33.3212V15.7425L15.0401 25.4332L3.10813 35.7892ZM6.53746 16.4345L2.76946 13.5625L6.53746 9.02921V16.4345ZM19.9948 37.6545H6.66146C5.94804 37.6497 5.24717 37.4664 4.62279 37.1212L19.1055 24.5545C19.3528 24.3443 19.6668 24.2289 19.9915 24.2289C20.3161 24.2289 20.6301 24.3443 20.8775 24.5545L35.3708 37.1212C34.7452 37.4669 34.0429 37.6503 33.3281 37.6545H19.9948Z" fill="white"/>
</g>
<defs>
<clipPath id="clip0_6024_6825">
<rect width="40" height="40" fill="white"/>
</clipPath>
</defs>
</svg>
