<svg width="15" height="14" viewBox="0 0 15 14" fill="none" xmlns="http://www.w3.org/2000/svg">
<path d="M7.21875 13.75C7.09375 13.9062 6.84375 13.9062 6.6875 13.75L0.15625 7.21875C0 7.0625 0 6.84375 0.15625 6.6875L6.6875 0.15625C6.84375 0 7.09375 0 7.21875 0.15625L7.84375 0.75C8 0.90625 8 1.15625 7.84375 1.28125L3 6.125H13.6875C13.875 6.125 14.0625 6.3125 14.0625 6.5V7.375C14.0625 7.59375 13.875 7.75 13.6875 7.75H3L7.84375 12.625C8 12.75 8 13 7.84375 13.1562L7.21875 13.75Z" fill="#0A0D12"/>
</svg>
