<svg width="15" height="14" viewBox="0 0 15 14" fill="none" xmlns="http://www.w3.org/2000/svg">
<path d="M6.84375 13.75C6.96875 13.9062 7.21875 13.9062 7.375 13.75L13.9062 7.21875C14.0625 7.0625 14.0625 6.84375 13.9062 6.6875L7.375 0.15625C7.21875 0 6.96875 0 6.84375 0.15625L6.21875 0.75C6.0625 0.90625 6.0625 1.15625 6.21875 1.28125L11.0625 6.125H0.375C0.1875 6.125 0 6.3125 0 6.5V7.375C0 7.59375 0.1875 7.75 0.375 7.75H11.0625L6.21875 12.625C6.0625 12.75 6.0625 13 6.21875 13.1562L6.84375 13.75Z" fill="#0A0D12"/>
</svg>
