<svg width="30" height="30" viewBox="0 0 30 30" fill="none" xmlns="http://www.w3.org/2000/svg">
<path d="M11.7 1.01709C10.5 1.01709 9.39844 1.7249 8.88281 2.78428C10.2141 3.30459 10.9172 4.67334 10.6078 6.30928C10.5656 6.53428 10.3687 6.68896 10.1484 6.68896C10.1203 6.68896 10.0922 6.68896 10.0641 6.67959C9.80625 6.63271 9.6375 6.38896 9.68906 6.13584C9.89531 5.03428 9.50156 3.81553 8.16562 3.54834H8.16094C8.13281 3.54365 8.10469 3.53428 8.08125 3.5249C8.07656 3.5249 8.06719 3.5249 8.0625 3.52021C7.65 3.33271 7.21875 3.23896 6.77344 3.23896C5.04375 3.23896 3.63281 4.6499 3.63281 6.37959C3.63281 6.80615 3.72188 7.22334 3.89062 7.62178C3.89531 7.63584 3.9 7.6499 3.90469 7.66396C4.14844 8.28271 4.77656 8.58271 5.37656 8.3624C5.61562 8.27334 5.8875 8.3999 5.97656 8.63896C6.06563 8.88271 5.93906 9.15459 5.69531 9.24365C5.46094 9.32803 5.22188 9.37021 4.98281 9.37021C4.27031 9.37021 3.6 8.99521 3.21094 8.3624C1.86563 8.7374 0.928125 9.96084 0.928125 11.3858C0.928125 11.9062 1.05469 12.4124 1.29844 12.8624C2.44688 12.3562 3.80625 12.7405 4.56562 13.8421C4.71094 14.0577 4.65469 14.3483 4.44375 14.4937C4.35938 14.5499 4.27031 14.578 4.17656 14.578C4.02656 14.578 3.88125 14.5077 3.79219 14.3765C3.23438 13.5608 2.18906 13.3405 1.40156 13.8702H1.39688C1.3875 13.8796 1.38281 13.8843 1.37344 13.889C0.525 14.3905 0 15.3046 0 16.2796C0 17.6155 0.951562 18.7687 2.26406 19.0171C2.42812 19.0452 2.56406 19.1671 2.62031 19.3265C2.67188 19.4905 2.63437 19.6686 2.51719 19.7952C1.98281 20.3718 1.69219 21.1312 1.69219 21.9233C1.69219 23.6483 3.08906 25.0546 4.80938 25.064C5.38594 24.9327 6.85313 24.4171 6.98906 23.7187C7.03594 23.4655 7.27969 23.3015 7.5375 23.3483C7.79063 23.3999 7.95938 23.6483 7.90781 23.9015C7.68281 25.0687 6.13125 25.6593 5.31094 25.8983C5.34844 27.403 6.57656 28.6077 8.09062 28.6077C8.55 28.6077 9 28.4905 9.40781 28.2749H9.4125C9.44531 28.228 9.49219 28.1952 9.54844 28.1671C10.425 27.7218 10.7812 26.7093 10.3641 25.8608C10.2469 25.6265 10.3406 25.3452 10.575 25.2327C10.8047 25.1155 11.0859 25.2093 11.2031 25.4437C11.7422 26.5312 11.4656 27.7827 10.5984 28.5702C11.0344 28.8374 11.5359 28.9827 12.0609 28.9827C13.1812 28.9827 14.2078 28.2937 14.6344 27.2577V15.9327C14.0391 15.389 13.2 15.314 12.5344 15.764C12.3187 15.9093 12.0281 15.8577 11.8828 15.6421C11.7375 15.4265 11.7938 15.1358 12.0094 14.9905C12.8109 14.4468 13.8047 14.3999 14.6344 14.8124V10.3312C14.0391 9.7874 13.2 9.7124 12.5297 10.1577C12.3141 10.303 12.0234 10.2421 11.8828 10.0312C11.7375 9.81553 11.7938 9.5249 12.0094 9.37959C12.8109 8.84053 13.8047 8.79834 14.6344 9.20615V3.04678C14.1797 1.82803 13.0125 1.01709 11.7 1.01709ZM7.02656 20.5452C6.99844 20.5452 6.96563 20.5405 6.9375 20.5358C5.49375 20.2546 4.57969 18.8765 4.85625 17.3952C4.90312 17.1421 5.14687 16.9733 5.40469 17.0202C5.65781 17.0671 5.82656 17.3108 5.775 17.5686C5.59687 18.5343 6.18281 19.4343 7.11563 19.6171C7.36875 19.664 7.5375 19.9124 7.48594 20.1655C7.44375 20.3905 7.24687 20.5452 7.02656 20.5452ZM6.74531 12.2624C6.52969 12.4077 6.23906 12.3515 6.09375 12.1358C5.94844 11.9202 6.00469 11.6296 6.22031 11.4843C7.43906 10.664 9.06094 10.9921 9.91406 12.2343C10.0594 12.4499 10.0031 12.7405 9.79219 12.8858C9.70781 12.9421 9.61875 12.9702 9.525 12.9702C9.375 12.9702 9.22969 12.8952 9.14062 12.764C8.58281 11.953 7.53281 11.7327 6.74531 12.2624ZM12.15 19.4999C12.1875 19.753 12.0094 19.9921 11.7516 20.0296C11.6203 20.0483 11.4937 20.0577 11.3672 20.0577C10.0688 20.0577 8.95781 19.1061 8.75156 17.7515C8.71406 17.4937 8.8875 17.2546 9.14531 17.2171C9.39844 17.1749 9.64219 17.353 9.67969 17.6108C9.825 18.5812 10.6828 19.2327 11.6203 19.1015C11.8734 19.0593 12.1125 19.2421 12.15 19.4999Z" fill="white"/>
<path d="M18.2242 7.32197L18.843 6.31416C18.9555 6.3376 19.0727 6.35635 19.1945 6.35635C20.1695 6.35635 20.9617 5.56416 20.9617 4.58916C20.9617 3.61885 20.1695 2.82666 19.1945 2.82666C18.2195 2.82666 17.4273 3.61885 17.4273 4.58916C17.4273 5.00166 17.5727 5.36729 17.807 5.67197L17.3617 6.38916H15.4258V7.60791H17.7039C17.9195 7.60791 18.1164 7.5001 18.2242 7.32197Z" fill="white"/>
<path d="M22.1609 10.5657L23.8719 8.56416C23.9656 8.45166 24.0172 8.31104 24.0172 8.17041V6.23916C24.6875 5.99072 25.175 5.34854 25.175 4.58916C25.175 3.61885 24.3781 2.82666 23.4078 2.82666C22.4328 2.82666 21.6406 3.61885 21.6406 4.58916C21.6406 5.34854 22.1234 5.99541 22.7984 6.23916V7.94541L21.4156 9.5626H15.4297V10.7813H21.6969C21.875 10.7813 22.0438 10.7017 22.1609 10.5657Z" fill="white"/>
<path d="M22.5688 13.2655L24.9828 10.4952H26.5813C26.8297 11.1655 27.4719 11.6483 28.2312 11.6483C29.2063 11.6483 29.9984 10.8562 29.9984 9.88115C29.9984 8.91084 29.2063 8.11865 28.2312 8.11865C27.4672 8.11865 26.825 8.60615 26.5813 9.27647H24.7063C24.5281 9.27647 24.3594 9.35146 24.2422 9.48271L21.8281 12.253H15.4297V13.4718H22.1094C22.2875 13.4718 22.4563 13.3968 22.5688 13.2655Z" fill="white"/>
<path d="M19.2016 23.6437C19.0797 23.6437 18.9625 23.6624 18.85 23.6858L18.2312 22.678C18.1187 22.4999 17.9266 22.3921 17.7156 22.3921H15.4375V23.6108H17.3734L17.8141 24.328C17.5797 24.628 17.4344 24.9983 17.4344 25.4108C17.4344 26.3812 18.2266 27.1733 19.2016 27.1733C20.1766 27.1733 20.9687 26.3812 20.9687 25.4108C20.9687 24.4358 20.1766 23.6437 19.2016 23.6437Z" fill="white"/>
<path d="M24.0172 23.7609V21.8297C24.0172 21.6891 23.9656 21.5484 23.8719 21.4313L22.1609 19.4297C22.0438 19.2984 21.875 19.2188 21.6969 19.2188H15.4297V20.4375H21.4156L22.7984 22.0547V23.7609C22.1234 24.0094 21.6406 24.6516 21.6406 25.4109C21.6406 26.3812 22.4328 27.1734 23.4078 27.1734C24.3781 27.1734 25.175 26.3812 25.175 25.4109C25.175 24.6516 24.6875 24.0047 24.0172 23.7609Z" fill="white"/>
<path d="M28.2312 18.3513C27.4719 18.3513 26.8297 18.8341 26.5813 19.5044H24.9828L22.5688 16.7341C22.4563 16.6028 22.2875 16.5278 22.1094 16.5278H15.4297V17.7466H21.8281L24.2422 20.5169C24.3547 20.6481 24.5234 20.7231 24.7063 20.7231H26.5813C26.825 21.3935 27.4672 21.881 28.2312 21.881C29.2063 21.881 29.9984 21.0888 29.9984 20.1185C29.9984 19.1435 29.2063 18.3513 28.2312 18.3513Z" fill="white"/>
</svg>
