<svg width="30" height="30" viewBox="0 0 30 30" fill="none" xmlns="http://www.w3.org/2000/svg">
<path d="M14.9994 27.857C13.9269 27.857 12.9102 27.6745 12.1368 27.343C12.0084 27.288 11.8919 27.2308 11.7852 27.1724V28.9285C11.7852 29.3062 13.0055 29.9999 14.9994 29.9999C16.9934 29.9999 18.2137 29.3062 18.2137 28.9285V27.1724C18.107 27.2308 17.9905 27.288 17.8621 27.343C17.0887 27.6745 16.072 27.857 14.9994 27.857Z" fill="white"/>
<path d="M14.9994 24.6427C13.9269 24.6427 12.9102 24.4601 12.1368 24.1287C12.0084 24.0736 11.8919 24.0165 11.7852 23.958V25.7141C11.7852 26.0918 13.0055 26.7856 14.9994 26.7856C16.9934 26.7856 18.2137 26.0918 18.2137 25.7141V23.958C18.107 24.0165 17.9905 24.0736 17.8621 24.1287C17.0887 24.4601 16.072 24.6427 14.9994 24.6427Z" fill="white"/>
<path d="M3.21429 27.857C2.14175 27.857 1.12505 27.6745 0.35163 27.343C0.22321 27.288 0.106726 27.2308 0 27.1724V28.9285C0 29.3062 1.22033 29.9999 3.21429 29.9999C5.20825 29.9999 6.42858 29.3062 6.42858 28.9285V27.1724C6.32186 27.2308 6.20538 27.288 6.07695 27.343C5.30353 27.6745 4.28683 27.857 3.21429 27.857Z" fill="white"/>
<path d="M3.21429 24.6427C2.14175 24.6427 1.12505 24.4601 0.35163 24.1287C0.22321 24.0736 0.106726 24.0165 0 23.958V25.7141C0 26.0918 1.22033 26.7856 3.21429 26.7856C5.20825 26.7856 6.42858 26.0918 6.42858 25.7141V23.958C6.32186 24.0165 6.20538 24.0736 6.07695 24.1287C5.30353 24.4601 4.28683 24.6427 3.21429 24.6427Z" fill="white"/>
<path d="M15.5357 21.4458V16.0714H17.1429V17.4066L23.6074 22.3793C23.5855 22.4159 23.5731 22.4574 23.5715 22.5C23.5715 22.8777 24.7918 23.5714 26.7858 23.5714C28.7797 23.5714 30.0001 22.8777 30.0001 22.5C30.0001 22.1223 28.7797 21.4286 26.7858 21.4286C25.8702 21.4286 25.1183 21.575 24.5722 21.7697L18.2143 16.879V16.0714H23.0358C23.9893 16.0714 24.9215 15.7886 25.7144 15.2588C26.5073 14.7291 27.1253 13.9761 27.4902 13.095C27.8551 12.214 27.9506 11.2446 27.7646 10.3093C27.5785 9.37408 27.1193 8.51498 26.445 7.84069C25.7707 7.1664 24.9116 6.7072 23.9764 6.52117C23.0411 6.33513 22.0717 6.43061 21.1907 6.79554C20.3097 7.16046 19.5567 7.77843 19.0269 8.57132C18.4971 9.3642 18.2143 10.2964 18.2143 11.25H17.1429C17.1447 9.90088 17.6085 8.5931 18.4572 7.5444C19.3059 6.49569 20.4882 5.76934 21.8072 5.48629C21.5885 4.4795 21.1491 3.53379 20.5208 2.71729C19.8924 1.9008 19.0908 1.23387 18.1736 0.764569C17.2564 0.295266 16.2465 0.0352794 15.2168 0.00334667C14.187 -0.0285861 13.1629 0.16833 12.2184 0.579904C11.2739 0.991477 10.4325 1.60746 9.7548 2.38345C9.07708 3.15944 8.57996 4.07612 8.29924 5.06741C8.01853 6.05871 7.96124 7.09993 8.13147 8.11605C8.30171 9.13216 8.69525 10.0979 9.28373 10.9435L8.40495 11.5565C7.46402 10.2102 6.96097 8.60669 6.9643 6.96424C6.9643 6.78434 6.97085 6.60597 6.98256 6.42898C6.97646 6.42896 6.97038 6.42853 6.9643 6.42853C5.68557 6.42853 4.45922 6.9365 3.55503 7.84069C2.65083 8.74489 2.14286 9.97124 2.14286 11.25C2.14286 12.5287 2.65083 13.755 3.55503 14.6592C4.45922 15.5634 5.68557 16.0714 6.9643 16.0714H11.7857V16.879L5.42783 21.7697C4.88173 21.575 4.12987 21.4286 3.21429 21.4286C1.22033 21.4286 0 22.1223 0 22.5C0 22.8777 1.22033 23.5714 3.21429 23.5714C5.20825 23.5714 6.42858 22.8777 6.42858 22.5C6.42691 22.4574 6.41455 22.4159 6.39262 22.3793L12.8572 17.4066V16.0714H14.4643V21.4458C12.7897 21.5549 11.7857 22.1574 11.7857 22.5C11.7857 22.8777 13.0061 23.5714 15 23.5714C16.994 23.5714 18.2143 22.8777 18.2143 22.5C18.2143 22.1574 17.2103 21.5549 15.5357 21.4458Z" fill="white"/>
<path d="M26.7846 24.6427C25.7121 24.6427 24.6954 24.4601 23.9219 24.1287C23.7935 24.0736 23.677 24.0165 23.5703 23.958V25.7141C23.5703 26.0918 24.7906 26.7856 26.7846 26.7856C28.7786 26.7856 29.9989 26.0918 29.9989 25.7141V23.958C29.8922 24.0165 29.7757 24.0736 29.6473 24.1287C28.8738 24.4601 27.8571 24.6427 26.7846 24.6427Z" fill="white"/>
<path d="M26.7846 27.857C25.7121 27.857 24.6954 27.6745 23.9219 27.343C23.7935 27.288 23.677 27.2308 23.5703 27.1724V28.9285C23.5703 29.3062 24.7906 29.9999 26.7846 29.9999C28.7786 29.9999 29.9989 29.3062 29.9989 28.9285V27.1724C29.8922 27.2308 29.7757 27.288 29.6473 27.343C28.8738 27.6745 27.8571 27.857 26.7846 27.857Z" fill="white"/>
</svg>
