<svg width="34" height="30" viewBox="0 0 34 30" fill="none" xmlns="http://www.w3.org/2000/svg">
<path d="M23.4874 13.9858H22.488C22.212 13.9858 21.9883 14.2095 21.9883 14.4853V15.4843C21.9883 15.7602 22.212 15.9838 22.488 15.9838H23.4874C23.7634 15.9838 23.9871 15.7602 23.9871 15.4843V14.4853C23.9871 14.2095 23.7634 13.9858 23.4874 13.9858Z" fill="white"/>
<path d="M23.4874 5.99414H22.488C22.212 5.99414 21.9883 6.21777 21.9883 6.49364V7.49263C21.9883 7.76849 22.212 7.99213 22.488 7.99213H23.4874C23.7634 7.99213 23.9871 7.76849 23.9871 7.49263V6.49364C23.9871 6.21777 23.7634 5.99414 23.4874 5.99414Z" fill="white"/>
<path d="M11.4913 5.99414H10.4919C10.2159 5.99414 9.99219 6.21777 9.99219 6.49364V7.49263C9.99219 7.76849 10.2159 7.99213 10.4919 7.99213H11.4913C11.7673 7.99213 11.991 7.76849 11.991 7.49263V6.49364C11.991 6.21777 11.7673 5.99414 11.4913 5.99414Z" fill="white"/>
<path d="M7.49521 13.9858H6.4958C6.21982 13.9858 5.99609 14.2095 5.99609 14.4853V15.4843C5.99609 15.7602 6.21982 15.9838 6.4958 15.9838H7.49521C7.77119 15.9838 7.99492 15.7602 7.99492 15.4843V14.4853C7.99492 14.2095 7.77119 13.9858 7.49521 13.9858Z" fill="white"/>
<path d="M29.8824 4.09587C29.4627 1.77821 27.4239 0 24.9853 0H4.99706C2.23868 0 0 2.23774 0 4.99496V16.9829C0 19.4004 1.71899 21.4184 3.99765 21.8779V24.9748C3.99765 25.774 4.89712 26.2535 5.55673 25.814L10.3139 22.6572C10.9935 24.5952 12.8325 25.9938 15.0112 25.9938H22.7066L28.4433 29.8299C29.1029 30.2695 30.0024 29.8099 30.0024 28.9908V25.8939C32.281 25.4344 34 23.4164 34 20.9988V9.01092C34 6.57337 32.241 4.53543 29.9024 4.11585L29.8824 4.09587ZM19.9882 6.49345C19.9882 5.11484 21.1076 3.99597 22.4868 3.99597H23.4862C24.8654 3.99597 25.9847 5.11484 25.9847 6.49345V7.49245C25.9847 8.87106 24.8654 9.98993 23.4862 9.98993H22.4868C21.1076 9.98993 19.9882 8.87106 19.9882 7.49245V6.49345ZM19.9882 14.4854C19.9882 13.1068 21.1076 11.9879 22.4868 11.9879H23.4862C24.8654 11.9879 25.9847 13.1068 25.9847 14.4854V15.4844C25.9847 16.863 24.8654 17.9819 23.4862 17.9819H22.4868C21.1076 17.9819 19.9882 16.863 19.9882 15.4844V14.4854ZM15.9906 4.99496C15.9906 4.43553 16.4303 3.99597 16.99 3.99597C17.5497 3.99597 17.9894 4.43553 17.9894 4.99496V8.99094C17.9894 9.55037 17.5497 9.98993 16.99 9.98993C16.4303 9.98993 15.9906 9.55037 15.9906 8.99094V4.99496ZM15.9906 12.9869C15.9906 12.4275 16.4303 11.9879 16.99 11.9879C17.5497 11.9879 17.9894 12.4275 17.9894 12.9869V16.9829C17.9894 17.5423 17.5497 17.9819 16.99 17.9819C16.4303 17.9819 15.9906 17.5423 15.9906 16.9829V12.9869ZM3.99765 4.99496C3.99765 4.43553 4.43739 3.99597 4.99706 3.99597C5.55673 3.99597 5.99647 4.43553 5.99647 4.99496V8.99094C5.99647 9.55037 5.55673 9.98993 4.99706 9.98993C4.43739 9.98993 3.99765 9.55037 3.99765 8.99094V4.99496ZM9.99412 15.4844C9.99412 16.863 8.87478 17.9819 7.49559 17.9819H6.49618C5.11699 17.9819 3.99765 16.863 3.99765 15.4844V14.4854C3.99765 13.1068 5.11699 11.9879 6.49618 11.9879H7.49559C8.87478 11.9879 9.99412 13.1068 9.99412 14.4854V15.4844ZM11.4932 9.98993H10.4938C9.11464 9.98993 7.9953 8.87106 7.9953 7.49245V6.49345C7.9953 5.11484 9.11464 3.99597 10.4938 3.99597H11.4932C12.8724 3.99597 13.9918 5.11484 13.9918 6.49345V7.49245C13.9918 8.87106 12.8724 9.98993 11.4932 9.98993ZM11.9929 12.9869C11.9929 12.4275 12.4327 11.9879 12.9924 11.9879C13.552 11.9879 13.9918 12.4275 13.9918 12.9869V16.9829C13.9918 17.5423 13.552 17.9819 12.9924 17.9819C12.4327 17.9819 11.9929 17.5423 11.9929 16.9829V12.9869ZM31.9812 20.9789C31.9812 22.6372 30.642 23.9758 28.983 23.9758C28.4233 23.9758 27.9835 24.4154 27.9835 24.9748V27.1127L23.5461 24.1556C23.3862 24.0557 23.1864 23.9958 22.9865 23.9958H14.9912C13.6919 23.9958 12.5926 23.1567 12.1728 21.9978H24.9853C27.7437 21.9978 29.9824 19.7601 29.9824 17.0029V6.19376C31.1417 6.61333 31.9812 7.71223 31.9812 9.01092V20.9988V20.9789Z" fill="white"/>
</svg>
